<?xml version="1.0" standalone="no"?>
<!DOCTYPE svg PUBLIC "-//W3C//DTD SVG 20010904//EN"
 "http://www.w3.org/TR/2001/REC-SVG-20010904/DTD/svg10.dtd">
<svg version="1.0" xmlns="http://www.w3.org/2000/svg"
 width="1920.000000pt" height="1920.000000pt" viewBox="0 0 1920.000000 1920.000000"
 preserveAspectRatio="xMidYMid meet">

<g transform="translate(0.000000,1920.000000) scale(0.100000,-0.100000)"
fill="#000000" stroke="none">
<path d="M3790 15405 l-365 -365 1763 -1763 1762 -1762 0 -2513 0 -2512 1040
0 1040 0 0 1465 c0 806 3 1465 8 1465 4 0 260 -253 570 -563 l562 -562 0 -903
0 -902 903 0 902 0 1530 -1530 1530 -1530 367 367 368 368 -5802 5802 c-3192
3192 -5805 5803 -5808 5803 -3 0 -169 -164 -370 -365z"/>
<path d="M13390 11462 l0 -3447 763 -763 762 -762 278 0 277 0 0 4210 0 4210
-1040 0 -1040 0 0 -3448z"/>
<path d="M10170 12362 l0 -1127 1040 -1040 1040 -1040 0 2168 0 2167 -1040 0
-1040 0 0 -1128z"/>
<path d="M4753 10632 l-1023 -2 0 -2070 0 -2070 1040 0 1040 0 0 2069 c0 1962
-1 2069 -17 2072 -10 2 -478 3 -1040 1z"/>
</g>
</svg>
